<svg xmlns="http://www.w3.org/2000/svg" width="512" height="512" fill="none"><mask id="a" fill="#fff"><path d="M142.472 170 318 1l-2.24 12.427-6.104 33.862-8.344 46.288L184.5 170z"/></mask><path fill="#3CE78E" d="M142.472 170 318 1l-2.24 12.427-6.104 33.862-8.344 46.288L184.5 170z"/><path fill="#26A061" d="m185.398 170.441 22.868-46.6-1.796-.881-22.868 46.599zm21.387-47.853-64.896 46.6 1.166 1.624 64.896-46.599zm102.274-76.102-102.288 76.112 1.194 1.605 102.288-76.112zm-101.388 77.868 93.944-29.824-.605-1.906-93.945 29.824zm107.377-111.63L206.656 122.7l1.424 1.404L316.472 14.128zM318 1l1.968.355 1.097-6.082-4.452 4.286zM142.472 170l-1.387-1.441-3.574 3.441h4.961zm42.028 0v2h.596l.499-.326zm116.812-76.423 1.095 1.674.721-.472.153-.847zm8.344-46.288-1.968-.355zm6.104-33.862 1.968.354zm.853-13.868-175.528 169 2.774 2.882 175.528-169zM142.472 172H184.5v-4h-42.028zm43.123-.326 116.812-76.423-2.189-3.347-116.813 76.422zm117.686-77.742 8.344-46.289-3.937-.71-8.344 46.29zm8.344-46.289 6.103-33.862-3.936-.71-6.104 33.863zm6.103-33.862 2.24-12.426-3.936-.71-2.24 12.427z" mask="url(#a)"/><mask id="b" fill="#fff"><path d="M186.47 209 255 316.569V343l-16.835-14.138-30.704-25.784-40.748-34.219L113 223.619l46.922-9.422z"/></mask><path fill="#3CE78E" d="M186.47 209 255 316.569V343l-16.835-14.138-30.704-25.784-40.748-34.219L113 223.619l46.922-9.422z"/><path fill="#26A061" d="m243.887 320.872.361-.933-.723-.28-.451.63zm-58.4-112.058-6.174 32.578 1.965.372 6.174-32.578zm-4.389 32.167L160.724 213.6l-1.605 1.194 20.374 27.381zm-1.717 1.001 12.05 27.281 1.83-.808-12.051-27.281zm12.05 27.281 15.115 34.219 1.83-.808-15.115-34.219zm-24.718.596h25.633v-2h-25.633zm88.893 45.914-62.654-47.71-1.212 1.592 62.654 47.709zm-16.628 13.672 5.722-7.991-1.626-1.165-5.722 7.991zm4.548-7.641 11.113 4.303.722-1.865-11.113-4.303zM255 316.569h2v-.583l-.313-.492zM186.47 209l1.686-1.075-.732-1.15-1.339.262zm-26.548 5.197-.385-1.962-.009.002zM113 223.619l-.394-1.961-4.069.817 3.175 2.674zm53.713 45.24-1.288 1.53.002.002zm40.748 34.219 1.286-1.532zm30.704 25.784-1.286 1.532zM255 343l-1.286 1.532 3.286 2.759V343zm1.687-27.506-68.531-107.569-3.373 2.15 68.53 107.568zm-70.602-108.457-26.548 5.198.769 3.925 26.548-5.197zm-26.557 5.2-46.922 9.421.788 3.922 46.921-9.422zm-47.816 12.912 53.713 45.24 2.576-3.06-53.713-45.24zm53.715 45.242 40.748 34.219 2.572-3.064-40.748-34.219zm40.748 34.219 30.704 25.784 2.572-3.063-30.704-25.785zm30.704 25.784 16.835 14.138 2.572-3.064-16.835-14.137zM257 343v-17.826h-4V343zm0-17.826v-8.605h-4v8.605z" mask="url(#b)"/><mask id="c" fill="#fff"><path d="M262 192.058V163l17.365 16.693 45.021 43.278L417 312l-79.375-6.183-60.007-90.265z"/></mask><path fill="#3CE78E" d="M262 192.058V163l17.365 16.693 45.021 43.278L417 312l-79.375-6.183-60.007-90.265z"/><path fill="#26A061" d="m277.618 215.552-.999-.049-.024.495.38.319zm.748-35.908-1.747 35.859 1.998.098 1.747-35.859zm62.403 87.694-62.507-52.552-1.287 1.531 62.506 52.552zM323.442 223.3l15.739 45.133 1.888-.659-15.739-45.132zm15.685 44.738-2.5 37.713 1.996.133 2.5-37.714zm.502.934 76.875 43.896.992-1.736-76.875-43.897zM262 163l1.386-1.442-3.386-3.255V163zm0 29.058h-2v.604l.334.503zm75.625 113.759-1.666 1.108.54.811.971.075zM417 312l-.155 1.994 5.566.434-4.025-3.87zM279.365 179.693l-1.386 1.442zm-1.747 35.859-1.665 1.107zm46.768 7.419 1.386-1.442zM260 163v29.058h4V163zm77.47 144.811 79.375 6.183.31-3.988-79.375-6.183zm-56.719-129.56-17.365-16.693-2.772 2.884 17.365 16.693zm-20.417 14.914 15.619 23.494 3.331-2.214-15.618-23.494zm15.619 23.494 60.006 90.266 3.332-2.215-60.007-90.265zm142.433 93.899-92.614-89.029-2.772 2.884 92.614 89.029zm-92.614-89.029-45.021-43.278-2.772 2.884L323 224.413z" mask="url(#c)"/><mask id="d" fill="#fff"><path fill-rule="evenodd" d="m390 343-84.414 16.8-86.276 108.267 29.173-12.445 31.034-40.444 42.828-11.2-11.793-33.6-4.966-10.578 63.311 2.897z" clip-rule="evenodd"/><path d="M219.31 468.067 210 511l158.897-148.303-63.311-2.897 4.966 10.578 11.793 33.6-42.828 11.2-31.034 40.444z"/></mask><path fill="#3CE78E" fill-rule="evenodd" d="m390 343-84.414 16.8-86.276 108.267 29.173-12.445 31.034-40.444 42.828-11.2-11.793-33.6-4.966-10.578 63.311 2.897z" clip-rule="evenodd"/><path fill="#3CE78E" d="M219.31 468.067 210 511l158.897-148.303-63.311-2.897 4.966 10.578 11.793 33.6-42.828 11.2-31.034 40.444z"/><path fill="#26A061" d="m305.586 359.8.046-.999-.666-.03-.285.603zm16.759 44.178.253.967 1.05-.274-.36-1.024zm-11.793-33.6.943-.331-.017-.048-.021-.046zm-62.069 85.244.392.92.241-.103.16-.208zm73.609-52.612-42.828 11.2.506 1.935 42.828-11.2zm-17.411-42.785 4.965 10.578 1.811-.85-4.966-10.578zm4.927 10.484 11.793 33.6 1.887-.662-11.793-33.6zm-60.332 85.522 31.035-40.444-1.587-1.218-31.035 40.444zm-29.573 12.755 29.172-12.444-.785-1.84-29.172 12.445zm149.239-107.288-63.31-2.897-.091 1.998 63.31 2.897zm-88.52 53.906 26.069-55.378-1.81-.852-26.069 55.378zM390 343l1.365 1.462 5.138-4.795-6.893 1.371zm-84.414 16.8-.39-1.962-.718.143-.456.573zM219.31 468.067l-1.564-1.247-.291.366-.099.457zM210 511l-1.955-.424-1.355 6.249 4.675-4.363zm158.897-148.303-1.365-1.463zm20.713-21.659-84.414 16.8.781 3.924 84.413-16.8zm-85.588 17.516L217.746 466.82l3.128 2.493 86.276-108.267zm-86.666 109.089-9.311 42.933 3.91.848 9.31-42.933zm-5.991 44.819 158.896-148.303-2.729-2.925-158.897 148.304zm158.896-148.303 21.104-19.697-2.73-2.924-21.103 19.696z" mask="url(#d)"/><mask id="e" fill="#fff"><path fill-rule="evenodd" d="M209.464 105.5 142.472 170l64.896-46.599L184.5 170l116.812-76.423-93.944 29.824 102.288-76.112 6.104-33.862L207.368 123.4z" clip-rule="evenodd"/></mask><path fill="#30C879" fill-rule="evenodd" d="M209.464 105.5 142.472 170l64.896-46.599L184.5 170l116.812-76.423-93.944 29.824 102.288-76.112 6.104-33.862L207.368 123.4z" clip-rule="evenodd"/><path fill="#26A061" d="m318 1 .984.177.548-3.04L317.306.28zM142.472 171H184.5v-2h-42.028zm159.825-77.245 8.343-46.289-1.968-.355-8.344 46.289zm14.447-80.151 2.24-12.427-1.968-.354-2.24 12.426zM317.306.28 208.77 104.78l1.387 1.44L318.694 1.72zM142.472 170l-1.387-1.441 2.554 3.066zm42.028 0-1.795-.881-3.214 6.548 6.104-3.993zm116.812-76.423 1.095 1.674-1.7-3.58zm8.344-46.288 1.194 1.604.634-.472.141-.778zm6.104-33.862 1.968.354 1.148-6.365-4.54 4.607zM209.464 105.5l1.986.233.649-5.547-4.023 3.873zm-23.869 66.174 116.812-76.423-2.189-3.347-116.813 76.422zm.7-.793 22.869-46.599-3.591-1.762-22.868 46.599zm19.907-49.105-64.896 46.599 2.333 3.25 64.896-46.6zm102.26-76.092-102.288 76.112 2.388 3.209L310.85 48.893zm-100.489 79.623 93.945-29.823-1.211-3.813-93.944 29.823zm103.652-77.664 6.103-33.862-3.936-.71-6.104 33.863zm2.711-35.62L205.944 121.997l2.848 2.808L317.184 14.83zm-106.26 92.036-66.991 64.5 2.774 2.882 66.992-64.5zm1.279 19.574 2.095-17.9-3.973-.466-2.095 17.901z" mask="url(#e)"/><mask id="f" fill="#fff"><path fill-rule="evenodd" d="m192.346 268.859 15.115 34.219-40.748-34.219zM143.5 217.5l42.97-8.5 5.876 59.859z" clip-rule="evenodd"/><path d="M192.346 268.859 255 316.569l-47.539-74.62zM238.165 328.862 255 343v-17.826l-11.113-4.302z"/></mask><path fill="#30C879" fill-rule="evenodd" d="m192.346 268.859 15.115 34.219-40.748-34.219zM143.5 217.5l42.97-8.5 5.876 59.859z" clip-rule="evenodd"/><path fill="#30C879" d="M192.346 268.859 255 316.569l-47.539-74.62zM238.165 328.862 255 343v-17.826l-11.113-4.302z"/><path fill="#26A061" d="m113 223.752-.201-.979-2.026.415 1.584 1.33zm30.299-7.232-30.5 6.253.402 1.959 30.5-6.252zm-30.942 7.998 53.713 45.107 1.286-1.532-53.713-45.106zm94.461 79.326 30.704 25.784 1.286-1.531-30.704-25.785zM256 325.174v-8.605h-2v8.605zm-47.696-83.762-20.991-32.949-1.687 1.074 20.991 32.949zM186.47 209l1.99-.195-.215-2.195-2.164.428zM255 343l-1.286 1.532 3.286 2.759V343zm0-26.431-1.212 1.591 2.899-2.666zM143.5 217.5l-.388-1.962-3.567.706 2.506 2.634zm63.961 85.578-1.286 1.532 3.115-2.34zm-40.748-34.219v-2h-5.492l4.206 3.532zm71.452 60.003-1.626-1.164-1.078 1.505 1.418 1.191zm5.722-7.99.722-1.866-1.446-.559-.902 1.26zM255 325.174h2v-1.37l-1.278-.495zm-47.539-83.225 1.687-1.075-1.795-2.817-1.636 2.913zm-22.982-32.754 5.877 59.859 3.98-.39-5.876-59.859zm1.602-2.157-42.969 8.5.776 3.924 42.97-8.5zm7.714 60.443-48.846-51.359-2.898 2.756 48.846 51.359zm-28.368 2.91 40.748 34.219 2.572-3.064-40.748-34.219zm25.09-.724 15.114 34.219 3.659-1.616-15.115-34.219zm-23.804 1.192h25.633v-4h-25.633zm89.499 44.119-62.654-47.71-2.424 3.182 62.654 47.71zm-19.333 15.416 16.835 14.138 2.572-3.064-16.835-14.137zm2.912-.367 5.722-7.991-3.252-2.329-5.722 7.991zM257 343v-17.826h-4V343zm-13.835-20.263 11.113 4.302 1.444-3.73-11.113-4.303zm13.522-7.243-47.539-74.62-3.374 2.15 47.539 74.619zm-62.597-45.656 15.115-26.91-3.488-1.958-15.115 26.91z" mask="url(#f)"/><mask id="g" fill="#fff"><path fill-rule="evenodd" d="m324.386 222.971-45.021-43.278-1.747 35.859 62.507 52.552-2.5 37.713L417 312l-76.875-43.896z" clip-rule="evenodd"/></mask><path fill="#30C879" fill-rule="evenodd" d="m324.386 222.971-45.021-43.278-1.747 35.859 62.507 52.552-2.5 37.713L417 312l-76.875-43.896z" clip-rule="evenodd"/><path fill="#26A061" d="m262 163 .693-.721-1.693-1.627V163zm0 29.058h-1v.302l.167.252zm15.618 23.494-.833.553zM261 163v29.058h2V163zm19.058 15.972-17.365-16.693-1.386 1.442 17.365 16.693zm-18.891 13.64 15.618 23.493 1.666-1.107-15.618-23.494zm15.618 23.493 60.007 90.266 1.666-1.107-60.007-90.266zm140.908 95.174-92.614-89.029-1.386 1.442 92.614 89.029zm-80.068-5.462-1.996-.132-.13 1.973 1.971.153zM417 312l-.155 1.994 1.147-3.731zM279.365 179.693l1.386-1.442-3.17-3.047-.213 4.392zm-1.747 35.859-1.997-.097-.049.99.759.638zm46.768 7.419 1.888-.659-.157-.451-.345-.332zm13.084 84.84 79.375 6.183.31-3.988-79.375-6.183zm-60.102-128.215-1.747 35.859 3.995.194 1.747-35.859zm64.044 86.977-62.507-52.552-2.574 3.062 62.507 52.552zm-15.64-45.044-45.021-43.278-2.772 2.884L323 224.413zm-3.275 2.101 15.74 45.132 3.776-1.317-15.739-45.133zm15.632 44.341-2.5 37.714 3.992.265 2.5-37.714zm1.004 1.87 76.875 43.896 1.984-3.474-76.875-43.896z" mask="url(#g)"/><mask id="h" fill="#fff"><path d="m305.586 359.8 4.966 10.578 12.948 34.689 45.397-42.37z"/><path fill-rule="evenodd" d="m248.483 431.459 57.103-71.659-26.069 55.378L264 435.4z" clip-rule="evenodd"/><path d="m248.483 455.622 4.017 15.711L288 438.2l-24-2.8z"/></mask><path fill="#30C879" d="m305.586 359.8 4.966 10.578 12.948 34.689 45.397-42.37z"/><path fill="#30C879" fill-rule="evenodd" d="m248.483 431.459 57.103-71.659-26.069 55.378L264 435.4z" clip-rule="evenodd"/><path fill="#30C879" d="m248.483 455.622 4.017 15.711L288 438.2l-24-2.8z"/><path fill="#26A061" d="m390 343 .682.731 2.569-2.398-3.446.686zM219.31 468.067l-.782-.624-.145.183-.05.229zM210 511l-.977-.212-.678 3.124 2.337-2.181zm113.5-105.933.682.731 2.721-2.54-3.627.834zm45.397-42.37-.683-.732zm20.908-20.678-84.414 16.8.39 1.962 84.414-16.8zM218.333 467.855l-9.31 42.933 1.954.424 9.311-42.933zm104.943-63.763-43.983 10.111.448 1.949 43.983-10.111zm-103.573 64.894 29.172-12.444-.785-1.84-29.172 12.445zm149.876-105.558 21.103-19.697-1.364-1.462-21.104 19.696zM210.682 511.731l42.5-39.667-1.364-1.462-42.5 39.667zm37.019-80.896-29.173 36.608 1.564 1.247 29.173-36.608zm75.117-26.499-35.5 33.133 1.364 1.462 35.5-33.133zm-34.136 34.595 80.897-75.503-1.365-1.463-80.896 75.504zm16.904-79.131.092-1.998-1.02-.047-.636.799zm17.914 45.267-1.874.699 1.048 2.807 2.191-2.044zm-43.983 10.111 1.587 1.217.131-.171.092-.194zm31.035-44.8 1.873-.7-.028-.076-.035-.074zm-62.069 85.244-1.587-1.217-.592.771.241.942zm120.414-92.925 1.364 1.462 3.475-3.243-4.748-.217zM252.5 471.333l-1.938.496.836 3.269 2.467-2.303zm-4.017-39.874-1.564-1.247-1.931 2.422 3.002.763zM288 438.2l1.365 1.462 3.158-2.948-4.291-.501zm15.776-77.55 4.965 10.578 3.621-1.7-4.965-10.578zm4.902 10.427 12.948 34.689 3.748-1.399-12.949-34.689zm60.31-10.378-63.31-2.897-.183 3.996 63.31 2.896zm-87.661 55.331 26.069-55.378-3.619-1.704-26.069 55.378zm-34.782 40.088 4.017 15.711 3.876-.991-4.018-15.711zm120.987-94.884-45.397 42.371 2.73 2.924 45.396-42.37zm-63.51-2.68-57.103 71.658 3.128 2.493 57.103-71.659zm-53.953 98.286 15.518-20.222-3.174-2.436-15.517 20.223zm15.518-20.222 15.517-20.223-3.173-2.435-15.518 20.222zm-17.597-3.221 15.518 3.941.984-3.876-15.517-3.942zm38.645 3.341-35.5 33.133 2.73 2.924 35.5-33.133zm-22.867.649 24 2.8.464-3.974-24-2.8z" mask="url(#h)"/></svg>