<?xml version="1.0" encoding="UTF-8" standalone="no"?>
<svg
   version="1.1"
   viewBox="0 0 256 85.085"
   id="svg14"
   sodipodi:docname="shards-logo-text.svg"
   inkscape:version="1.4 (e7c3feb100, 2024-10-09)"
   xmlns:inkscape="http://www.inkscape.org/namespaces/inkscape"
   xmlns:sodipodi="http://sodipodi.sourceforge.net/DTD/sodipodi-0.dtd"
   xmlns="http://www.w3.org/2000/svg"
   xmlns:svg="http://www.w3.org/2000/svg">
  <defs
     id="defs14">
    <clipPath
       id="clip0_4_116">
      <rect
         width="361"
         height="510"
         fill="#ffffff"
         transform="translate(75,1)"
         id="rect4"
         x="0"
         y="0" />
    </clipPath>
  </defs>
  <sodipodi:namedview
     id="namedview14"
     pagecolor="#ffffff"
     bordercolor="#000000"
     borderopacity="0.25"
     inkscape:showpageshadow="2"
     inkscape:pageopacity="0.0"
     inkscape:pagecheckerboard="0"
     inkscape:deskcolor="#d1d1d1"
     inkscape:zoom="3.7454562"
     inkscape:cx="104.39316"
     inkscape:cy="35.509693"
     inkscape:window-width="1920"
     inkscape:window-height="1011"
     inkscape:window-x="0"
     inkscape:window-y="0"
     inkscape:window-maximized="1"
     inkscape:current-layer="svg14" />
  <g
     style="fill:none"
     id="g2"
     transform="matrix(0.13827024,0,0,0.13827024,9.7261697,4.3669309)">
    <g
       clip-path="url(#clip0_4_116)"
       id="g4">
      <path
         d="M 142,171 318,2 301.268,94.5772 184.141,171 Z"
         fill="#30c879"
         id="path1-3" />
      <path
         d="M 113,224.862 186.987,210 256,318.372 V 345 Z"
         fill="#30c879"
         id="path2-6" />
      <path
         d="M 263,193.253 V 164 l 154,150 -78.863,-6.224 z"
         fill="#30c879"
         id="path3-7" />
      <path
         d="M 305.586,361.8 390,345 210,513 l 9.31,-42.933 z"
         fill="#30c879"
         id="path4-5" />
    </g>
  </g>
  <path
     style="font-size:26.5479px;font-family:'Atkinson Hyperlegible';-inkscape-font-specification:'Atkinson Hyperlegible';stroke-width:0.13827"
     d="M 72.472734,49.272166 V 31.564717 h 5.548511 q 2.176927,0 3.822897,0.424766 1.672518,0.424767 2.601694,1.592874 0.955725,1.14156 0.955725,3.345036 0,2.176927 -0.955725,3.345035 -0.929176,1.14156 -2.601694,1.566326 -1.64597,0.398218 -3.822897,0.398218 h -3.053009 v 7.035194 z m 2.495502,-9.185573 h 3.265392 q 1.300847,0 2.336215,-0.185836 1.035368,-0.185835 1.64597,-0.849532 0.637149,-0.690246 0.637149,-2.123832 0,-1.460135 -0.637149,-2.15038 -0.610602,-0.690246 -1.64597,-0.902629 -1.035368,-0.212383 -2.336215,-0.212383 h -3.265392 z m 13.300493,9.212121 V 36.130956 h 1.619422 l 0.716794,2.442406 q 0.690245,-1.194655 1.858353,-1.911448 1.194655,-0.743342 2.840625,-0.743342 v 2.309668 q -0.185835,0 -0.398219,0 -0.185835,0 -0.37167,0.02655 -2.256572,0.185835 -3.1592,1.566326 -0.876081,1.38049 -0.876081,3.822897 v 5.654703 z m 14.495161,0.318574 q -1.14156,0 -2.25657,-0.398218 -1.115017,-0.398219 -2.044193,-1.221203 -0.902629,-0.849533 -1.460134,-2.15038 -0.557506,-1.300847 -0.557506,-3.079557 0,-1.778709 0.557506,-3.079556 0.557505,-1.300847 1.460134,-2.123832 0.929176,-0.849533 2.044193,-1.247751 1.11501,-0.398219 2.25657,-0.398219 1.14156,0 2.25657,0.398219 1.14156,0.398218 2.04419,1.247751 0.92917,0.822985 1.46013,2.123832 0.55751,1.300847 0.55751,3.079556 0,1.77871 -0.55751,3.079557 -0.53096,1.300847 -1.46013,2.15038 -0.90263,0.822984 -2.04419,1.221203 -1.11501,0.398218 -2.25657,0.398218 z m 0,-1.964544 q 0.95572,0 1.85835,-0.50441 0.90263,-0.530958 1.48668,-1.592874 0.58406,-1.088464 0.58406,-2.78753 0,-1.699065 -0.58406,-2.760981 -0.58405,-1.088464 -1.48668,-1.592874 -0.90263,-0.530958 -1.85835,-0.530958 -0.92918,0 -1.85836,0.530958 -0.90262,0.50441 -1.486679,1.592874 -0.584053,1.061916 -0.584053,2.760981 0,1.699066 0.584053,2.78753 0.584059,1.061916 1.486679,1.592874 0.92918,0.50441 1.85836,0.50441 z m 10.83154,-14.017291 q -0.69024,0 -1.19465,-0.477862 -0.47786,-0.50441 -0.47786,-1.194656 0,-0.690245 0.47786,-1.168107 0.50441,-0.477862 1.19465,-0.477862 0.69025,0 1.16811,0.477862 0.47786,0.477862 0.47786,1.168107 0,0.690246 -0.47786,1.194656 -0.47786,0.477862 -1.16811,0.477862 z m -3.58396,19.937472 -1.46014,-0.05309 v -1.937997 l 1.24775,0.02655 q 1.11502,0 1.69907,-0.212383 0.58405,-0.185836 0.76989,-0.743341 0.21238,-0.557506 0.21238,-1.672518 V 36.130956 h 2.23002 v 12.981922 q 0,1.699066 -0.42476,2.65479 -0.39822,0.982273 -1.43359,1.380491 -1.00882,0.424766 -2.84062,0.424766 z m 14.28276,-3.955637 q -2.07074,0 -3.50433,-0.902628 -1.43358,-0.929177 -2.20347,-2.468955 -0.74334,-1.566326 -0.74334,-3.504322 0,-2.097284 0.84953,-3.610515 0.84953,-1.539778 2.28312,-2.362763 1.46013,-0.849533 3.26539,-0.849533 1.56633,0 2.76098,0.63715 1.19466,0.610602 1.96455,1.672518 0.79643,1.035368 1.14156,2.362763 0.37167,1.327395 0.26548,2.734433 h -10.1413 q 0.0531,1.64597 0.71679,2.601694 0.69025,0.955725 1.61942,1.353943 0.92918,0.371671 1.72562,0.371671 1.11501,0 1.85835,-0.345123 0.76989,-0.37167 1.2212,-0.955724 l 2.15038,0.637149 q -0.71679,1.14156 -2.04419,1.884901 -1.32739,0.743341 -3.18574,0.743341 z m -4.03528,-8.070561 h 7.75198 q 0,-0.929176 -0.47786,-1.778709 -0.45131,-0.849533 -1.30085,-1.380491 -0.82298,-0.557506 -1.99109,-0.557506 -0.98227,0 -1.85835,0.371671 -0.87608,0.37167 -1.46014,1.194655 -0.5575,0.822985 -0.66369,2.15038 z m 18.02601,8.070561 q -1.8849,0 -3.26539,-0.87608 -1.38049,-0.902629 -2.12383,-2.442407 -0.74335,-1.539778 -0.74335,-3.530871 0,-1.964544 0.76989,-3.504322 0.79644,-1.566326 2.23003,-2.442407 1.43358,-0.902629 3.37158,-0.902629 1.77871,0 3.05301,0.876081 1.2743,0.876081 1.91145,2.097284 l -2.04419,0.743341 q -0.42477,-0.796437 -1.24775,-1.274299 -0.82299,-0.477862 -1.83181,-0.477862 -0.98227,0 -1.85835,0.530958 -0.87608,0.50441 -1.40704,1.592874 -0.53096,1.061916 -0.53096,2.734434 0,1.645969 0.53096,2.760981 0.55751,1.088464 1.40704,1.619422 0.87608,0.530958 1.85835,0.530958 1.08847,0 1.8849,-0.477862 0.82299,-0.50441 1.24775,-1.247752 l 2.04419,0.743342 q -0.74334,1.274299 -2.12383,2.123832 -1.38049,0.822984 -3.13265,0.822984 z m 11.99965,-0.318574 q -1.24775,0 -1.93799,-0.238931 -0.6637,-0.265479 -0.92918,-0.982273 -0.23893,-0.716793 -0.23893,-2.070736 v -8.097109 h -2.23003 v -1.778709 h 2.23003 v -3.318488 h 2.23002 v 3.318488 h 2.5486 v 1.778709 h -2.5486 v 7.725439 q 0,1.00882 0.18584,1.353942 0.21238,0.345123 1.1681,0.345123 h 1.19466 v 1.964545 z m 18.02602,0.318574 q -1.46013,0 -2.84062,-0.451314 -1.38049,-0.451314 -2.44241,-1.380491 -1.03537,-0.929176 -1.51323,-2.362763 l 2.30967,-0.690245 q 0.31857,0.955724 1.03536,1.592874 0.7168,0.610602 1.64597,0.902629 0.95573,0.292026 1.91145,0.292026 1.06192,0 2.01764,-0.345122 0.95573,-0.345123 1.53978,-1.035368 0.6106,-0.716794 0.6106,-1.77871 0,-1.088463 -0.79643,-1.725613 -0.79644,-0.63715 -2.76098,-1.14156 l -2.25658,-0.50441 q -1.2212,-0.318575 -2.41586,-0.849533 -1.1681,-0.530958 -1.93799,-1.51323 -0.74334,-0.982272 -0.74334,-2.628242 0,-1.51323 0.92917,-2.575146 0.95573,-1.061916 2.44241,-1.619422 1.51323,-0.557506 3.13265,-0.557506 1.24775,0 2.44241,0.371671 1.2212,0.345122 2.17693,1.088464 0.98227,0.716793 1.53977,1.858353 l -2.28311,0.663697 q -0.50441,-0.929176 -1.64597,-1.407039 -1.11502,-0.477862 -2.33622,-0.477862 -0.95572,0 -1.8318,0.318575 -0.87609,0.292027 -1.43359,0.902629 -0.55751,0.610601 -0.55751,1.539778 0,0.87608 0.50441,1.407038 0.53096,0.530958 1.38049,0.849533 0.87608,0.292027 1.91145,0.530958 l 1.938,0.424767 q 1.35394,0.318574 2.5486,0.87608 1.19465,0.557506 1.93799,1.566326 0.74335,1.00882 0.74335,2.707886 0,1.221203 -0.58406,2.203476 -0.58405,0.955724 -1.56632,1.619422 -0.98228,0.637149 -2.23003,0.982272 -1.2212,0.345122 -2.52205,0.345122 z m 9.82275,-0.318574 V 31.564717 h 2.23002 v 6.557331 q 0.55751,-0.929176 1.56633,-1.566326 1.00882,-0.63715 2.68133,-0.63715 2.38932,0 3.37159,1.407039 0.98227,1.380491 0.98227,3.637062 v 8.336041 h -2.23002 v -7.672343 q 0,-1.00882 -0.18584,-1.858353 -0.18583,-0.876081 -0.82298,-1.407039 -0.61061,-0.530958 -1.8849,-0.530958 -1.61943,0 -2.5486,1.115012 -0.92918,1.088464 -0.92918,3.212296 v 7.141385 z m 18.1853,0.318574 q -1.24776,0 -2.28312,-0.451314 -1.03537,-0.451314 -1.64597,-1.300847 -0.61061,-0.849533 -0.61061,-2.044188 0,-1.566326 1.08847,-2.468955 1.11501,-0.902628 3.1061,-1.380491 2.01764,-0.50441 4.69898,-0.796436 0.0531,-1.672518 -0.6637,-2.575147 -0.71679,-0.902628 -2.30966,-0.902628 -1.19466,0 -1.96455,0.557506 -0.74334,0.530958 -0.95572,1.486682 l -2.15038,-0.63715 q 0.53096,-1.51323 1.8849,-2.336215 1.38049,-0.849533 3.1592,-0.849533 2.73443,0 3.98218,1.300848 1.2743,1.274299 1.2743,4.03528 v 3.079557 q 0,1.645969 0.13274,2.840625 0.13274,1.194655 0.31858,2.123832 h -2.04419 l -0.53096,-1.805257 q -0.58405,0.982272 -1.67252,1.566326 -1.08846,0.557505 -2.81407,0.557505 z m 0.47786,-1.778709 q 1.03537,0 1.96454,-0.37167 0.92918,-0.371671 1.51323,-1.247752 0.58406,-0.902628 0.58406,-2.442406 v -0.822985 q -2.01764,0.212383 -3.50433,0.530958 -1.48668,0.292027 -2.30966,0.849533 -0.79644,0.530958 -0.79644,1.433586 0,0.929177 0.6637,1.51323 0.69024,0.557506 1.8849,0.557506 z m 9.7962,1.460135 V 36.130956 h 1.61943 l 0.71679,2.442406 q 0.69024,-1.194655 1.85835,-1.911448 1.19466,-0.743342 2.84063,-0.743342 v 2.309668 q -0.18584,0 -0.39822,0 -0.18584,0 -0.37167,0.02655 -2.25657,0.185835 -3.1592,1.566326 -0.87608,1.38049 -0.87608,3.822897 v 5.654703 z m 13.83145,0.318574 q -1.48668,0 -2.78753,-0.796437 -1.30085,-0.822984 -2.09728,-2.336215 -0.76989,-1.539778 -0.76989,-3.716706 0,-2.176927 0.76989,-3.690158 0.79643,-1.539778 2.09728,-2.336215 1.30085,-0.822985 2.78753,-0.822985 1.56632,0 2.62824,0.63715 1.06192,0.610602 1.64597,1.64597 v -6.636975 h 2.23002 v 12.76954 q 0,0.663697 0.0531,1.964544 0.0531,1.274299 0.39822,2.999913 h -2.09729 l -0.58405,-1.991093 q -0.58405,1.061916 -1.64597,1.699066 -1.06192,0.610601 -2.62824,0.610601 z m 0.58405,-1.911448 q 1.69907,0 2.70789,-1.300847 1.03537,-1.300847 1.03537,-3.637063 0,-2.362763 -1.03537,-3.637062 -1.00882,-1.300847 -2.70789,-1.300847 -1.69906,0 -2.73443,1.300847 -1.00882,1.274299 -1.00882,3.637062 0,2.336216 1.00882,3.637063 1.03537,1.300847 2.73443,1.300847 z m 14.07038,1.911448 q -1.14156,0 -2.25657,-0.345122 -1.08846,-0.371671 -1.96454,-1.088464 -0.84954,-0.743341 -1.30085,-1.858353 l 2.15038,-0.796437 q 0.29202,1.168108 1.2743,1.699066 1.00882,0.50441 2.09728,0.50441 0.79644,0 1.48668,-0.238931 0.7168,-0.238932 1.16811,-0.690246 0.45132,-0.451314 0.45132,-1.035368 0,-1.088464 -0.87609,-1.539778 -0.84953,-0.451314 -2.04418,-0.690245 l -1.83181,-0.371671 q -0.95572,-0.212383 -1.77871,-0.584054 -0.82298,-0.398218 -1.32739,-1.115012 -0.50441,-0.716793 -0.50441,-1.911448 0,-1.194656 0.74334,-1.991093 0.74334,-0.822985 1.8849,-1.247751 1.16811,-0.424766 2.44241,-0.424766 1.56632,0 2.94681,0.663697 1.40704,0.63715 1.99109,2.01764 l -2.09728,0.769889 q -0.34512,-0.796437 -1.2212,-1.168107 -0.84954,-0.398219 -1.77871,-0.398219 -1.00882,0 -1.83181,0.451315 -0.82298,0.451314 -0.82298,1.300847 0,0.849533 0.69024,1.247751 0.7168,0.371671 1.75217,0.584054 l 1.72561,0.345122 q 1.06191,0.212384 2.01764,0.610602 0.95572,0.398219 1.56632,1.194656 0.61061,0.769889 0.61061,2.176927 0,1.247752 -0.76989,2.123832 -0.76989,0.876081 -1.99109,1.353943 -1.22121,0.451314 -2.6017,0.451314 z"
     id="text1"
     aria-label="Project Shards" />
</svg>
